<svg width="16" height="16" viewBox="0 0 16 16" fill="none" xmlns="http://www.w3.org/2000/svg">
<path d="M2.46972 14.7331L2.46861 14.7338C2.33583 14.8153 2.18475 14.8621 2.02927 14.87C1.87159 14.8689 1.71633 14.8309 1.57593 14.759C1.44029 14.6833 1.32681 14.5733 1.24683 14.44C1.16634 14.3058 1.12264 14.1528 1.12012 13.9964V1.12H14.8801V14.01H14.8799L14.8803 14.0239C14.8845 14.1758 14.846 14.3257 14.769 14.4567L14.7669 14.4603C14.6895 14.5946 14.5784 14.7063 14.4445 14.7844C14.3051 14.8604 14.1489 14.9002 13.9901 14.9002C13.8324 14.9002 13.6772 14.8609 13.5385 14.7859L8.1669 11.571L7.90765 11.4158L7.64973 11.5732L2.46972 14.7331Z" fill="#FEE060" stroke="#FFCD00"/>
</svg>
