<svg width="93" height="32" viewBox="0 0 93 32" fill="none" xmlns="http://www.w3.org/2000/svg">
<g clip-path="url(#clip0_15_220)">
<path d="M30.7708 18.0154V17.9846C30.7708 15.7077 32.4795 13.8461 34.8688 13.8461C36.3356 13.8461 37.2581 14.3538 37.999 15.1846L36.6381 16.6615C36.139 16.1231 35.64 15.7846 34.8537 15.7846C33.7498 15.7846 32.9634 16.7846 32.9634 17.9538V17.9846C32.9634 19.2 33.7347 20.1846 34.9444 20.1846C35.6854 20.1846 36.1995 19.8615 36.7439 19.3384L38.0444 20.6769C37.2883 21.5231 36.4112 22.1384 34.8537 22.1384C32.4795 22.1231 30.7708 20.2923 30.7708 18.0154Z" fill="#1A1A1A"/>
<path d="M38.8762 18.0154V17.9846C38.8762 15.6923 40.6909 13.8461 43.1255 13.8461C45.545 13.8461 47.3445 15.6769 47.3445 17.9538V17.9846C47.3445 20.2769 45.5299 22.1231 43.0952 22.1231C40.6757 22.1231 38.8762 20.3077 38.8762 18.0154ZM45.1518 18.0154V17.9846C45.1518 16.8154 44.3201 15.7846 43.0952 15.7846C41.825 15.7846 41.0689 16.7846 41.0689 17.9538V17.9846C41.0689 19.1538 41.9006 20.1846 43.1255 20.1846C44.3957 20.1846 45.1518 19.1846 45.1518 18.0154Z" fill="#1A1A1A"/>
<path d="M48.5996 17.9846V17.9538C48.5996 15.2923 50.3084 13.8461 52.1533 13.8461C53.3328 13.8461 54.0889 14.1692 54.5879 14.7231V11.1538L56.8108 9.84613V21.9538H54.5879V21.1231C54.0738 21.7692 53.3025 22.1077 52.1533 22.1077C50.3386 22.0923 48.5996 20.6461 48.5996 17.9846ZM54.6182 17.9846V17.9538C54.6182 16.6307 53.7562 15.7538 52.7279 15.7538C51.6996 15.7538 50.8225 16.6154 50.8225 17.9538V17.9846C50.8225 19.3077 51.6996 20.1846 52.7279 20.1846C53.7562 20.1846 54.6182 19.3077 54.6182 17.9846Z" fill="#1A1A1A"/>
<path d="M58.4138 18.0154V17.9846C58.4138 15.7077 60.0016 13.8461 62.285 13.8461C64.9011 13.8461 66.0958 15.9077 66.0958 18.1692C66.0958 18.3538 66.0806 18.5538 66.0655 18.7692H60.6216C60.8333 19.8 61.5441 20.3231 62.527 20.3231C63.268 20.3231 63.8123 20.0923 64.4172 19.5077L65.6875 20.6461C64.9616 21.5692 63.9031 22.1231 62.4967 22.1231C60.1528 22.1231 58.4138 20.4461 58.4138 18.0154ZM63.9333 17.3538C63.7972 16.3384 63.2226 15.6615 62.285 15.6615C61.3626 15.6615 60.7728 16.3231 60.5914 17.3538H63.9333Z" fill="#1A1A1A"/>
<path d="M67.8345 11.1538L70.0574 9.84613V21.9538H67.8345V11.1538Z" fill="#1A1A1A"/>
<path d="M74.5187 12.3077L72.1899 13.6769V11.2154L74.5187 9.84613V12.3077Z" fill="#0390A5"/>
<path d="M72.2502 15.1077L74.4732 13.8V21.9538H72.2502V15.1077Z" fill="#1A1A1A"/>
<path d="M76.5146 15.1077L78.7376 13.8V14.9692C79.2517 14.3077 79.9019 13.8461 81.021 13.8461C82.6995 13.8461 83.6824 14.9692 83.6824 16.8V21.9538H81.4595V17.5077C81.4595 16.4461 80.9605 15.8923 80.1137 15.8923C79.2668 15.8923 78.7224 16.4461 78.7224 17.5077V21.9538H76.4995V15.1077H76.5146Z" fill="#1A1A1A"/>
<path d="M85.7239 11.1538L87.9468 9.84613V16.8923L90.5327 14H93.1941L90.2151 17.1231L93.3 21.9538H90.7595L88.718 18.7077L87.9468 19.5384V21.9538H85.7239V11.1538Z" fill="#1A1A1A"/>
<path d="M10.5073 13.9538V21.9538L27.5195 31.9538V23.9538L17.3122 17.9538L27.5195 11.9538V3.9538L10.5073 13.9538Z" fill="#244A74"/>
<path d="M0.284912 -0.0308228V7.96918L10.4922 13.9692L0.284912 19.9692V27.9692L17.2971 17.9692V9.96918L0.284912 -0.0308228Z" fill="#50C3C8"/>
<path d="M17.3122 17.9538L10.5073 21.9538V13.9538L17.3122 9.96918V17.9538Z" fill="#0390A5"/>
</g>
<defs>
<clipPath id="clip0_15_220">
<rect width="93" height="32" fill="white"/>
</clipPath>
</defs>
</svg>
