<svg width="20" height="18" viewBox="0 0 20 18" fill="none" xmlns="http://www.w3.org/2000/svg">
<path d="M14.2482 0.730021L14.6503 0.731505C15.8333 0.84208 16.9446 1.3672 17.7832 2.22113C18.7173 3.17227 19.2374 4.45418 19.2301 5.78728V5.79012C19.2303 7.05152 18.7631 8.26826 17.9186 9.2053L17.9128 9.21176L17.9072 9.21843L17.6992 9.46609L11.5021 16.6627C11.502 16.6628 11.5019 16.6629 11.5018 16.663C11.34 16.8498 11.1403 17 10.9159 17.1036C10.6884 17.2021 10.4428 17.252 10.1948 17.25C9.95933 17.2473 9.72683 17.197 9.51124 17.1023L9.51054 17.102C9.29789 17.0089 9.10787 16.8709 8.95353 16.6976L8.95354 16.6976L8.95095 16.6947L2.44095 9.49469L2.42489 9.47693L2.40721 9.46078C1.65723 8.77602 1.13405 7.87873 0.907531 6.88875C0.683941 5.90672 0.756716 4.88044 1.11663 3.9398C1.48425 2.99224 2.1287 2.17735 2.96605 1.60126C3.80345 1.02514 4.79494 0.714581 5.81136 0.710023C6.54606 0.709516 7.27151 0.873893 7.93424 1.19104L7.93423 1.19105L7.93684 1.19228C8.60018 1.50503 9.18248 1.96653 9.63847 2.54091L10.0257 3.02867L10.4182 2.54518C10.8805 1.97577 11.4645 1.51717 12.1273 1.20306C12.7901 0.888952 13.5148 0.727313 14.2482 0.730021Z" fill="#A1C0FF" stroke="#6396FF"/>
</svg>
