<svg width="18" height="18" viewBox="0 0 18 18" fill="none" xmlns="http://www.w3.org/2000/svg">
<path d="M13.9381 11.3843L13.928 11.4133L13.9214 11.4433C13.8822 11.6229 13.8809 11.8086 13.9176 11.9886L14.5054 15.9042L14.5053 15.9043L14.5071 15.9146C14.5438 16.1287 14.5197 16.3489 14.4374 16.55C14.3543 16.7516 14.2147 16.9248 14.0354 17.0488L14.0324 17.0509C13.8522 17.1776 13.6412 17.2535 13.4217 17.2707C13.2077 17.278 12.996 17.225 12.8108 17.1175L12.8108 17.1174L12.8025 17.1128L9.61518 15.3443C9.61468 15.344 9.61417 15.3438 9.61367 15.3435C9.43229 15.2417 9.22758 15.1888 9.01963 15.19C8.81054 15.189 8.60456 15.2409 8.42087 15.3408L8.42085 15.3408L8.41612 15.3435L5.25026 17.1111C5.05483 17.2151 4.83581 17.2665 4.6146 17.2605C4.45491 17.249 4.29925 17.2048 4.15728 17.1306C4.01296 17.0553 3.88596 16.9506 3.78441 16.8233C3.68286 16.696 3.60899 16.549 3.56752 16.3915C3.52612 16.2343 3.51794 16.0702 3.54351 15.9096C3.54354 15.9094 3.54358 15.9091 3.54361 15.9089L4.18008 12.0006C4.22531 11.8107 4.22313 11.6124 4.17353 11.4232L4.1736 11.4232L4.1714 11.4153C4.11763 11.2231 4.01514 11.0479 3.87387 10.9069C3.87345 10.9065 3.87303 10.9061 3.87261 10.9056L1.06917 8.08223C0.921327 7.92482 0.816765 7.73176 0.76572 7.52186L0.765886 7.52182L0.762465 7.5092C0.707973 7.30817 0.705889 7.09668 0.756212 6.89486C0.836003 6.69743 0.965354 6.52374 1.13194 6.39067L1.13205 6.3908L1.14191 6.3825C1.30727 6.24327 1.50664 6.1505 1.71959 6.11364L5.4049 5.55435L5.40493 5.55454L5.41846 5.5521C5.61104 5.51743 5.79341 5.44007 5.95217 5.32568L5.95228 5.32583L5.96316 5.31753C6.12208 5.19628 6.25066 5.03976 6.33873 4.86031L6.33883 4.86036L6.34324 4.85087L7.94324 1.41087L7.94366 1.40997C8.03616 1.21006 8.18366 1.04062 8.3689 0.921471C8.55615 0.802891 8.77323 0.739929 8.99488 0.739929C9.21654 0.739929 9.43362 0.802893 9.62087 0.921477C9.80611 1.04063 9.9536 1.21006 10.0461 1.40997L10.047 1.41196L11.656 4.84966C11.7423 5.0385 11.8761 5.2017 12.0443 5.32332C12.2052 5.44272 12.3924 5.52172 12.5903 5.55363L12.5903 5.55365L12.5949 5.55435L16.2802 6.11364C16.4914 6.1502 16.6893 6.24177 16.8538 6.37913C17.0117 6.51899 17.1312 6.69677 17.2012 6.89562C17.2539 7.10022 17.2526 7.3151 17.1973 7.51919L17.1971 7.51915L17.194 7.53186C17.1426 7.7435 17.0367 7.93802 16.8869 8.09614L16.8862 8.09692L14.2287 10.9142C14.0991 11.0481 13.9999 11.2084 13.9381 11.3843Z" fill="#F49766" stroke="#ED5300"/>
</svg>
